<svg width="33" height="32" viewBox="0 0 33 32" fill="none" xmlns="http://www.w3.org/2000/svg">
<path d="M16.5599 27.1172L16.3999 27.2916L16.2239 27.1172C8.6239 19.6011 3.5999 14.6311 3.5999 9.59128C3.5999 6.10354 5.9999 3.48774 9.1999 3.48774C11.6639 3.48774 14.0639 5.23161 14.9119 7.60327H17.8879C18.7359 5.23161 21.1359 3.48774 23.5999 3.48774C26.7999 3.48774 29.1999 6.10354 29.1999 9.59128C29.1999 14.6311 24.1759 19.6011 16.5599 27.1172ZM23.5999 0C20.8159 0 18.1439 1.41253 16.3999 3.62725C14.6559 1.41253 11.9839 0 9.1999 0C4.2719 0 0.399902 4.20272 0.399902 9.59128C0.399902 16.1657 5.8399 21.5542 14.0799 29.6981L16.3999 32L18.7199 29.6981C26.9599 21.5542 32.3999 16.1657 32.3999 9.59128C32.3999 4.20272 28.5279 0 23.5999 0Z" fill="black"/>
</svg>
