<svg width="33" height="32" viewBox="0 0 33 32" fill="none" xmlns="http://www.w3.org/2000/svg">
<path d="M31.7976 14.0536L18.5429 0.802936C18.0258 0.28868 17.3261 0 16.5966 0C15.8672 0 15.1675 0.28868 14.6504 0.802936L1.40396 14.0536C0.889131 14.5707 0.600098 15.2705 0.600098 16C0.600098 16.7295 0.889131 17.4293 1.40396 17.9464L14.6573 31.1971C15.1744 31.7113 15.8741 32 16.6035 32C17.3329 32 18.0327 31.7113 18.5498 31.1971L31.7962 17.9464C32.3111 17.4293 32.6001 16.7295 32.6001 16C32.6001 15.2705 32.3111 14.5707 31.7962 14.0536H31.7976ZM16.5973 28.4603L4.13466 16L16.5973 3.5397L29.06 16L16.5973 28.4603Z" fill="black"/>
</svg>
