<svg width="32" height="32" viewBox="0 0 32 32" fill="none" xmlns="http://www.w3.org/2000/svg">
<path d="M0 16C0 15.2006 0.273378 14.434 0.759993 13.8687C1.24661 13.3035 1.9066 12.9859 2.59478 12.9859H23.1454L16.3298 5.06887C15.8715 4.4975 15.6219 3.74178 15.6338 2.96093C15.6457 2.18007 15.918 1.43504 16.3934 0.882809C16.8688 0.330574 17.5102 0.0142469 18.1824 0.000469584C18.8546 -0.0133077 19.5052 0.276541 19.9971 0.808951L31.2411 13.87C31.7271 14.4352 32 15.2013 32 16C32 16.7987 31.7271 17.5648 31.2411 18.13L19.9971 31.191C19.5052 31.7235 18.8546 32.0133 18.1824 31.9995C17.5102 31.9858 16.8688 31.6694 16.3934 31.1172C15.918 30.565 15.6457 29.8199 15.6338 29.0391C15.6219 28.2582 15.8715 27.5025 16.3298 26.9311L23.1454 19.0141H2.59478C1.9066 19.0141 1.24661 18.6965 0.759993 18.1313C0.273378 17.566 0 16.7994 0 16Z" fill="black"/>
</svg>
